<svg xmlns="http://www.w3.org/2000/svg" viewBox="0 0 48 48" fill="none" stroke-width="2" stroke-linecap="round" stroke-linejoin="round">
  <!-- Droplets icon (cyan) - positioned left -->
  <g transform="translate(2, 8)" stroke="#22d3ee">
    <path d="M7 16.3c2.2 0 4-1.83 4-4.05 0-1.16-.57-2.26-1.71-3.19S7.29 6.75 7 5.3c-.29 1.45-1.14 2.84-2.29 3.76S3 11.1 3 12.25c0 2.22 1.8 4.05 4 4.05z"/>
    <path d="M12.56 6.6A10.97 10.97 0 0 0 14 3.02c.5 2.5 2 4.9 4 6.5s3 3.5 3 5.5a6.98 6.98 0 0 1-11.91 4.97"/>
  </g>
  <!-- Leaf icon (emerald) - positioned overlapping -->
  <g transform="translate(16, 12) scale(0.9)" stroke="#34d399">
    <path d="M11 20A7 7 0 0 1 9.8 6.1C15.5 5 17 4.48 19 2c1 2 2 4.18 2 8 0 5.5-4.78 10-10 10Z"/>
    <path d="M2 21c0-3 1.85-5.36 5.08-6C9.5 14.52 12 13 13 12"/>
  </g>
</svg>
